<?xml version="1.0" encoding="utf-8"?>
<svg version="1.1" id="Layer_1" xmlns="http://www.w3.org/2000/svg" xmlns:xlink="http://www.w3.org/1999/xlink" x="0px" y="0px"
	 viewBox="0 0 1 3.5" style="enable-background:new 0 0 1 3.5;" xml:space="preserve">
<style type="text/css">
	.st0{fill:#b0cfff;}
</style>
<g>
	<path class="st0" d="M0.27,1.13L0.13,1.01C0.31,0.9,0.4,0.75,0.43,0.57C0.35,0.58,0.28,0.59,0.21,0.6
		C0.14,0.61,0.08,0.62,0.03,0.63L0,0.47c0.05-0.01,0.11-0.03,0.19-0.04C0.27,0.42,0.35,0.41,0.43,0.4C0.42,0.34,0.41,0.27,0.39,0.2
		l0.18-0.01C0.59,0.25,0.6,0.32,0.6,0.39c0.04,0,0.08,0,0.13,0c0.04,0,0.08,0,0.12,0c0.04,0,0.07,0,0.1,0.01L0.94,0.57
		c-0.03,0-0.07-0.01-0.11-0.01c-0.04,0-0.08,0-0.13,0c-0.03,0-0.06,0-0.1,0C0.59,0.81,0.48,1,0.27,1.13z"/>
	<path class="st0" d="M0.16,2.37L0.05,2.21c0.06-0.04,0.12-0.07,0.17-0.11c0.05-0.04,0.1-0.08,0.15-0.12
		C0.41,1.93,0.45,1.9,0.49,1.86c0.03-0.04,0.06-0.07,0.08-0.1c0.02-0.03,0.03-0.05,0.03-0.07c0-0.01-0.01-0.02-0.02-0.03
		C0.56,1.66,0.54,1.66,0.52,1.66c-0.03,0-0.07,0-0.11,0.01C0.36,1.68,0.32,1.69,0.27,1.7c-0.05,0.01-0.1,0.03-0.14,0.04L0.09,1.58
		c0.09-0.02,0.17-0.04,0.25-0.06C0.42,1.5,0.5,1.49,0.58,1.49c0.04,0,0.08,0,0.11,0.01c0.03,0.01,0.06,0.02,0.08,0.05
		C0.78,1.57,0.79,1.6,0.79,1.64c0,0.05-0.01,0.1-0.04,0.15C0.71,1.85,0.68,1.9,0.63,1.96c0.05,0.03,0.1,0.08,0.15,0.13
		c0.05,0.05,0.1,0.1,0.15,0.16L0.78,2.36C0.74,2.31,0.7,2.26,0.66,2.21C0.61,2.16,0.56,2.12,0.52,2.08C0.46,2.14,0.4,2.19,0.34,2.24
		C0.28,2.29,0.22,2.33,0.16,2.37z M0.82,1.57C0.81,1.56,0.8,1.55,0.8,1.54C0.79,1.52,0.78,1.5,0.77,1.49
		C0.76,1.47,0.75,1.46,0.75,1.44l0.07-0.03c0.01,0.02,0.01,0.03,0.02,0.05c0.01,0.02,0.02,0.04,0.03,0.05L0.82,1.57z M0.94,1.55
		C0.94,1.55,0.93,1.54,0.92,1.53C0.91,1.51,0.89,1.5,0.88,1.48C0.87,1.47,0.87,1.46,0.86,1.45L0.92,1.4
		c0.01,0.01,0.02,0.03,0.03,0.05C0.97,1.47,0.98,1.49,1,1.5L0.94,1.55z"/>
	<path class="st0" d="M0.05,3.32L0.02,3.14C0.06,3.13,0.1,3.12,0.15,3.11C0.2,3.1,0.25,3.1,0.31,3.09c0.06-0.01,0.12-0.01,0.18-0.01
		c0.06,0,0.12,0,0.18,0c0.05,0,0.1,0,0.15,0c0.05,0,0.09,0.01,0.13,0.01L0.93,3.28C0.9,3.27,0.86,3.27,0.82,3.27
		c-0.04,0-0.09,0-0.14,0c-0.05,0-0.11,0-0.17,0c-0.06,0-0.12,0.01-0.17,0.01c-0.06,0-0.11,0.01-0.16,0.02
		C0.13,3.3,0.09,3.31,0.05,3.32z"/>
</g>
</svg>
