<?xml version="1.0" encoding="utf-8"?>
<!-- Generator: Adobe Illustrator 26.0.2, SVG Export Plug-In . SVG Version: 6.00 Build 0)  -->
<svg version="1.1" id="Layer_1" xmlns="http://www.w3.org/2000/svg" xmlns:xlink="http://www.w3.org/1999/xlink" x="0px" y="0px"
	 viewBox="0 0 10.33 11.55" style="enable-background:new 0 0 10.33 11.55;" xml:space="preserve">
<style type="text/css">
	.st0{fill:#FFFFFF;}
</style>
<path class="st0" d="M5.09,5.26L5.09,5.26z"/>
<path class="st0" d="M5.56,5.62L5.56,5.62z"/>
<path class="st0" d="M5.14,4.76L5.14,4.76z"/>
<path class="st0" d="M6,5.26L6,5.26z"/>
<polygon class="st0" points="1.32,6.96 1.34,6.96 1.75,6.96 1.75,6.58 1.34,6.58 1.32,6.58 1.34,6.55 1.54,6.21 1.21,6.02 
	1.01,6.38 1,6.39 0.79,6.02 0.46,6.21 0.68,6.58 0.63,6.58 0.25,6.58 0.25,6.96 0.64,6.96 0.68,6.96 0.66,6.98 0.46,7.33 0.79,7.52 
	1,7.16 1,7.15 1.21,7.52 1.54,7.33 1.32,6.96 "/>
<polygon class="st0" points="4.66,6.96 4.68,6.96 5.08,6.96 5.08,6.58 4.68,6.58 4.66,6.58 4.68,6.55 4.87,6.21 4.55,6.02 
	4.34,6.38 4.33,6.39 4.12,6.02 3.8,6.21 4.01,6.58 3.96,6.58 3.58,6.58 3.58,6.96 3.98,6.96 4.01,6.96 4,6.98 3.8,7.33 4.12,7.52 
	4.33,7.16 4.33,7.15 4.55,7.52 4.87,7.33 4.66,6.96 "/>
<polygon class="st0" points="7.99,6.96 8.01,6.96 8.42,6.96 8.42,6.58 8.01,6.58 7.99,6.58 8.01,6.55 8.2,6.21 7.88,6.02 7.67,6.38 
	7.67,6.39 7.45,6.02 7.13,6.21 7.34,6.58 7.29,6.58 6.92,6.58 6.92,6.96 7.31,6.96 7.34,6.96 7.33,6.98 7.13,7.33 7.45,7.52 
	7.66,7.16 7.67,7.15 7.88,7.52 8.2,7.33 7.99,6.96 "/>
<polygon class="st0" points="1.32,1.19 1.34,1.19 1.75,1.19 1.75,0.81 1.34,0.81 1.32,0.81 1.34,0.78 1.54,0.44 1.21,0.25 
	1.01,0.61 1,0.62 0.79,0.25 0.46,0.44 0.68,0.81 0.63,0.81 0.25,0.81 0.25,1.19 0.64,1.19 0.68,1.19 0.66,1.21 0.46,1.56 0.79,1.75 
	1,1.38 1,1.38 1.21,1.75 1.54,1.56 1.32,1.19 "/>
<polygon class="st0" points="4.66,1.19 4.68,1.19 5.08,1.19 5.08,0.81 4.68,0.81 4.66,0.81 4.68,0.78 4.87,0.44 4.55,0.25 
	4.34,0.61 4.33,0.62 4.12,0.25 3.8,0.44 4.01,0.81 3.96,0.81 3.58,0.81 3.58,1.19 3.98,1.19 4.01,1.19 4,1.21 3.8,1.56 4.12,1.75 
	4.33,1.38 4.33,1.38 4.55,1.75 4.87,1.56 4.66,1.19 "/>
<polygon class="st0" points="7.99,1.19 8.01,1.19 8.42,1.19 8.42,0.81 8.01,0.81 7.99,0.81 8.01,0.78 8.2,0.44 7.88,0.25 7.67,0.61 
	7.67,0.62 7.45,0.25 7.13,0.44 7.34,0.81 7.29,0.81 6.92,0.81 6.92,1.19 7.31,1.19 7.34,1.19 7.33,1.21 7.13,1.56 7.45,1.75 
	7.66,1.38 7.67,1.38 7.88,1.75 8.2,1.56 7.99,1.19 "/>
<polygon class="st0" points="2.99,4.07 3.01,4.07 3.42,4.07 3.42,3.7 3.01,3.7 2.99,3.7 3.01,3.66 3.2,3.32 2.88,3.13 2.67,3.49 
	2.67,3.51 2.45,3.13 2.13,3.32 2.34,3.7 2.29,3.7 1.92,3.7 1.92,4.07 2.31,4.07 2.34,4.07 2.33,4.09 2.13,4.45 2.45,4.63 2.66,4.27 
	2.67,4.26 2.88,4.63 3.2,4.45 2.99,4.07 "/>
<polygon class="st0" points="6.32,4.07 6.34,4.07 6.75,4.07 6.75,3.7 6.34,3.7 6.32,3.7 6.34,3.66 6.54,3.32 6.21,3.13 6.01,3.49 
	6,3.51 5.79,3.13 5.46,3.32 5.67,3.7 5.63,3.7 5.25,3.7 5.25,4.07 5.64,4.07 5.67,4.07 5.66,4.09 5.46,4.45 5.79,4.63 5.99,4.27 
	6,4.26 6.21,4.63 6.54,4.45 6.32,4.07 "/>
<polygon class="st0" points="9.66,4.07 9.68,4.07 10.08,4.07 10.08,3.7 9.68,3.7 9.66,3.7 9.68,3.66 9.87,3.32 9.54,3.13 9.34,3.49 
	9.33,3.51 9.12,3.13 8.79,3.32 9.01,3.7 8.96,3.7 8.58,3.7 8.58,4.07 8.97,4.07 9.01,4.07 9,4.09 8.79,4.45 9.12,4.63 9.33,4.27 
	9.33,4.26 9.54,4.63 9.87,4.45 9.66,4.07 "/>
<path d="M5.14,11.54L5.14,11.54z"/>
<polygon class="st0" points="2.99,9.85 3.01,9.85 3.42,9.85 3.42,9.47 3.01,9.47 2.99,9.47 3.01,9.44 3.2,9.1 2.88,8.91 2.67,9.27 
	2.67,9.28 2.45,8.91 2.13,9.1 2.34,9.47 2.29,9.47 1.92,9.47 1.92,9.85 2.31,9.85 2.34,9.85 2.33,9.87 2.13,10.22 2.45,10.41 
	2.66,10.04 2.67,10.04 2.88,10.41 3.2,10.22 2.99,9.85 "/>
<polygon class="st0" points="6.32,9.85 6.34,9.85 6.75,9.85 6.75,9.47 6.34,9.47 6.32,9.47 6.34,9.44 6.54,9.1 6.21,8.91 6.01,9.27 
	6,9.28 5.79,8.91 5.46,9.1 5.67,9.47 5.63,9.47 5.25,9.47 5.25,9.85 5.64,9.85 5.67,9.85 5.66,9.87 5.46,10.22 5.79,10.41 
	5.99,10.04 6,10.04 6.21,10.41 6.54,10.22 6.32,9.85 "/>
<polygon class="st0" points="9.66,9.85 9.68,9.85 10.08,9.85 10.08,9.47 9.68,9.47 9.66,9.47 9.68,9.44 9.87,9.1 9.54,8.91 
	9.34,9.27 9.33,9.28 9.12,8.91 8.79,9.1 9.01,9.47 8.96,9.47 8.58,9.47 8.58,9.85 8.97,9.85 9.01,9.85 9,9.87 8.79,10.22 
	9.12,10.41 9.33,10.04 9.33,10.04 9.54,10.41 9.87,10.22 9.66,9.85 "/>
</svg>
