<?xml version="1.0" encoding="utf-8"?>
<svg version="1.1" id="Layer_1" xmlns="http://www.w3.org/2000/svg" xmlns:xlink="http://www.w3.org/1999/xlink" x="0px" y="0px"
	 viewBox="0 0 6 1" style="enable-background:new 0 0 6 1;" xml:space="preserve">
<style type="text/css">
	.st0{fill:#b0cfff;}
</style>
<g>
	<path class="st0" d="M1.28,0.47l0.19-0.38c0.02-0.04,0.05-0.07,0.1-0.08C1.61-0.01,1.65,0,1.69,0.02c0.04,0.02,0.07,0.05,0.08,0.1
		C1.79,0.16,1.79,0.2,1.76,0.24L1.43,0.91C1.4,0.97,1.35,1,1.28,1C1.2,1,1.15,0.97,1.13,0.91L0.79,0.24
		C0.77,0.2,0.76,0.16,0.78,0.12c0.01-0.04,0.04-0.08,0.08-0.1C0.9,0,0.94-0.01,0.99,0.01c0.04,0.01,0.08,0.04,0.1,0.08L1.28,0.47z"
		/>
	<path class="st0" d="M2.19,0.38h0.13c0.03,0,0.06,0.01,0.08,0.03C2.41,0.44,2.42,0.47,2.42,0.5c0,0.03-0.01,0.06-0.03,0.08
		C2.37,0.61,2.34,0.62,2.31,0.62H2.19v0.04h0.17c0.05,0,0.09,0.02,0.12,0.05C2.5,0.74,2.52,0.78,2.52,0.83
		c0,0.05-0.02,0.09-0.05,0.12C2.44,0.98,2.4,0.99,2.35,0.99H2.02c-0.05,0-0.09-0.02-0.12-0.05C1.87,0.91,1.85,0.87,1.85,0.83V0.17
		c0-0.05,0.02-0.09,0.05-0.12s0.07-0.05,0.12-0.05h0.33c0.05,0,0.09,0.02,0.12,0.05s0.05,0.07,0.05,0.12S2.5,0.26,2.47,0.29
		S2.4,0.34,2.35,0.34H2.19V0.38z"/>
	<path class="st0" d="M2.93,0.61v0.22c0,0.05-0.02,0.09-0.05,0.12C2.85,0.98,2.81,1,2.76,1C2.72,1,2.68,0.98,2.64,0.95
		C2.61,0.92,2.6,0.88,2.6,0.83V0.17c0-0.05,0.02-0.09,0.05-0.12C2.68,0.02,2.72,0,2.76,0c0.05,0,0.09,0.02,0.12,0.05l0.3,0.34V0.17
		c0-0.05,0.02-0.09,0.05-0.12C3.26,0.02,3.3,0,3.35,0c0.05,0,0.09,0.02,0.12,0.05C3.5,0.08,3.51,0.12,3.51,0.17v0.67
		c0,0.05-0.02,0.09-0.05,0.12C3.43,0.98,3.39,1,3.35,1C3.3,1,3.26,0.98,3.23,0.95L2.93,0.61z"/>
	<path class="st0" d="M4.11,0.64C4.13,0.62,4.14,0.6,4.14,0.57v-0.4c0-0.05,0.02-0.09,0.05-0.12S4.26,0,4.3,0
		c0.05,0,0.09,0.02,0.12,0.05c0.03,0.03,0.05,0.07,0.05,0.12v0.42c0,0.12-0.04,0.21-0.12,0.29C4.27,0.96,4.16,1,4.03,1
		C3.91,1,3.8,0.96,3.72,0.88C3.64,0.8,3.6,0.7,3.6,0.58V0.17c0-0.05,0.02-0.09,0.05-0.12C3.68,0.02,3.72,0,3.76,0
		s0.09,0.02,0.12,0.05c0.03,0.03,0.05,0.07,0.05,0.12v0.4c0,0.03,0.01,0.05,0.02,0.07C3.97,0.66,4,0.67,4.03,0.67
		C4.07,0.67,4.1,0.66,4.11,0.64z"/>
	<path class="st0" d="M4.63,0.94C4.57,0.9,4.55,0.85,4.55,0.81c0-0.05,0.02-0.09,0.05-0.12c0.03-0.03,0.07-0.05,0.12-0.05
		c0.04,0,0.07,0.01,0.09,0.03C4.83,0.7,4.86,0.71,4.88,0.71c0.03,0,0.04-0.01,0.05-0.02c0-0.02-0.03-0.04-0.09-0.06
		C4.77,0.6,4.71,0.57,4.65,0.53c-0.06-0.04-0.09-0.11-0.09-0.2S4.6,0.16,4.66,0.1C4.73,0.03,4.8,0,4.89,0
		c0.08,0,0.16,0.02,0.23,0.06c0.07,0.04,0.1,0.08,0.1,0.13c0,0.05-0.02,0.09-0.05,0.12C5.13,0.33,5.09,0.35,5.05,0.35
		C5,0.35,4.98,0.34,4.96,0.32C4.95,0.3,4.93,0.29,4.9,0.29c-0.02,0-0.04,0.01-0.04,0.02C4.86,0.33,4.88,0.34,4.94,0.37
		c0.05,0.02,0.12,0.05,0.19,0.09C5.2,0.5,5.23,0.57,5.23,0.67c0,0.09-0.03,0.17-0.1,0.24C5.07,0.97,4.98,1,4.88,1
		C4.76,1,4.68,0.98,4.63,0.94z"/>
</g>
</svg>
