<?xml version="1.0" encoding="utf-8"?>
<svg version="1.1" id="Layer_1" xmlns="http://www.w3.org/2000/svg" xmlns:xlink="http://www.w3.org/1999/xlink" x="0px" y="0px"
	 viewBox="0 0 55 27.5" style="enable-background:new 0 0 55 27.5;" xml:space="preserve">
<style type="text/css">
	.st0{fill:none;stroke:#B0CFFF;stroke-width:5;stroke-miterlimit:10;}
</style>
<path class="st0" d="M55,27.5"/>
<path class="st0" d="M3.29,14.45C7.93,5.85,17.03,0,27.5,0c10.44,0,19.52,5.82,24.18,14.39"/>
<path class="st0" d="M13.21,17.4C16.38,12.92,21.6,10,27.5,10c5.97,0,11.24,2.99,14.4,7.55"/>
<path class="st0" d="M20.86,24.01C22.12,21.62,24.62,20,27.5,20c2.88,0,5.38,1.62,6.64,4.01"/>
<path class="st0" d="M-27.5,41.25c0-15.19,12.31-27.5,27.5-27.5s27.5,12.31,27.5,27.5"/>
<path class="st0" d="M-17.5,41.25c0-9.66,7.84-17.5,17.5-17.5s17.5,7.84,17.5,17.5"/>
<path class="st0" d="M-7.5,41.25c0-4.14,3.36-7.5,7.5-7.5s7.5,3.36,7.5,7.5"/>
<path class="st0" d="M27.5,41.25c0-15.19,12.31-27.5,27.5-27.5s27.5,12.31,27.5,27.5"/>
<path class="st0" d="M37.5,41.25c0-9.66,7.84-17.5,17.5-17.5s17.5,7.84,17.5,17.5"/>
<path class="st0" d="M47.5,41.25c0-4.14,3.36-7.5,7.5-7.5s7.5,3.36,7.5,7.5"/>
<path class="st0" d="M30.82,0.64C35.48-7.93,44.56-13.75,55-13.75c15.19,0,27.5,12.31,27.5,27.5"/>
<path class="st0" d="M40.63,3.76C43.79-0.78,49.05-3.75,55-3.75c9.66,0,17.5,7.84,17.5,17.5"/>
<path class="st0" d="M48.4,10.18c1.27-2.34,3.75-3.93,6.6-3.93c4.14,0,7.5,3.36,7.5,7.5"/>
<path class="st0" d="M-27.5,13.75c0-15.19,12.31-27.5,27.5-27.5c10.44,0,19.52,5.82,24.18,14.39"/>
<path class="st0" d="M-17.5,13.75c0-9.66,7.84-17.5,17.5-17.5c5.95,0,11.21,2.97,14.37,7.51"/>
<path class="st0" d="M-7.5,13.75c0-4.14,3.36-7.5,7.5-7.5c2.78,0,5.2,1.51,6.5,3.75"/>
<path class="st0" d="M0,55c0-15.19,12.31-27.5,27.5-27.5S55,39.81,55,55"/>
</svg>
